<?xml version="1.0" encoding="UTF-8" standalone="no"?>
<!DOCTYPE svg PUBLIC "-//W3C//DTD SVG 1.1//EN" "http://www.w3.org/Graphics/SVG/1.1/DTD/svg11.dtd">
<svg width="100%" height="100%" viewBox="0 0 151 32" version="1.1" xmlns="http://www.w3.org/2000/svg" xmlns:xlink="http://www.w3.org/1999/xlink" xml:space="preserve" xmlns:serif="http://www.serif.com/" style="fill-rule:evenodd;clip-rule:evenodd;stroke-linejoin:round;stroke-miterlimit:2;">
    <g transform="matrix(1,0,0,1,-100.025,-982.114)">
        <g transform="matrix(1,0,0,2.40047,0,927.171)">
            <g transform="matrix(0.0877487,0,0,0.0365548,89.4953,17.2801)">
                <g transform="matrix(1,0,0,1,40.011,-652.352)">
                    <path d="M660.2,932.955L660.2,897.255C660.2,869.313 683.193,846.32 711.135,846.319C712.187,846.32 713.053,847.186 713.053,848.238L713.053,1133.28C713.053,1134.33 712.187,1135.2 711.135,1135.2L665.35,1135.2C664.297,1135.2 663.431,1134.33 663.431,1133.28L663.431,1113.31C663.431,1112.26 662.565,1111.4 661.513,1111.39L661.281,1111.39C660.615,1111.4 659.996,1111.75 659.653,1112.32C654.799,1120.26 647.451,1127.08 637.61,1132.78C627.385,1138.69 614.743,1141.65 599.684,1141.65C587.218,1141.69 574.894,1139.01 563.574,1133.79C552.167,1128.56 541.888,1121.16 533.314,1112C524.327,1102.33 517.274,1091.03 512.536,1078.71C502.317,1051.4 502.317,1021.3 512.536,993.987C517.273,981.667 524.327,970.367 533.314,960.7C541.888,951.539 552.167,944.138 563.574,938.913C574.894,933.692 587.218,931.007 599.684,931.046C614.746,931.046 627.388,934.005 637.61,939.922C647.449,945.622 654.796,952.442 659.653,960.382C660.002,960.952 659.535,961.305 660.204,961.305M610.578,1092.84C617.421,1092.87 624.205,1091.56 630.55,1089C636.826,1086.47 642.522,1082.7 647.293,1077.9C652.307,1072.8 656.281,1066.77 658.993,1060.15C664.907,1044.83 664.907,1027.85 658.993,1012.54C656.28,1005.92 652.306,999.89 647.293,994.787C642.521,989.992 636.825,986.216 630.55,983.687C624.204,981.129 617.421,979.827 610.578,979.854C603.716,979.829 596.92,981.201 590.606,983.888C584.347,986.537 578.661,990.375 573.863,995.188C568.848,1000.29 564.874,1006.32 562.163,1012.94C556.249,1027.97 556.249,1044.71 562.163,1059.74C564.872,1066.36 568.847,1072.39 573.863,1077.49C578.659,1082.31 584.346,1086.15 590.606,1088.79C596.919,1091.49 603.715,1092.86 610.578,1092.84L610.578,1092.84Z" style="fill:rgb(244,244,244);fill-rule:nonzero;"/>
                    <path d="M946.2,1044.36C945.776,1046.72 943.703,1048.45 941.306,1048.45L802.836,1048.45C800.135,1048.47 797.919,1050.69 797.919,1053.39C797.919,1053.77 797.961,1054.14 798.045,1054.5C799.138,1059.67 801.024,1064.64 803.636,1069.23C806.834,1074.83 811.081,1079.76 816.144,1083.76C821,1087.6 826.547,1090.48 832.485,1092.23C838.378,1093.98 844.493,1094.86 850.64,1094.85C862.744,1094.85 872.764,1092.1 880.699,1086.58C887.256,1082.07 892.858,1076.31 897.182,1069.62C898.524,1067.5 901.277,1066.72 903.532,1067.82C926.879,1079.39 929.005,1112.05 907.19,1126.3C906.967,1126.44 906.743,1126.59 906.52,1126.73C891.05,1136.68 872.154,1141.65 849.833,1141.66C835.532,1141.8 821.342,1139.13 808.075,1133.79C782.899,1123.67 762.92,1103.69 752.8,1078.52C747.437,1065.11 744.763,1050.79 744.933,1036.35C744.861,1022.47 747.464,1008.7 752.6,995.8C762.426,970.68 781.798,950.437 806.462,939.516C819.48,933.761 833.585,930.872 847.817,931.044C863.684,931.044 877.805,933.666 890.181,938.911C902.021,943.785 912.632,951.228 921.247,960.7C929.74,970.255 936.193,981.445 940.21,993.582C944.61,1006.85 946.791,1020.76 946.665,1034.74M889.404,1010.94C889.408,1010.94 889.412,1010.94 889.416,1010.94C892.113,1010.94 894.333,1008.72 894.333,1006.02C894.333,1005.52 894.256,1005.02 894.104,1004.54C893.515,1002.73 892.811,1000.96 891.996,999.236C889.8,994.695 886.791,990.595 883.12,987.136C878.898,983.166 873.973,980.019 868.596,977.856C862.808,975.436 855.882,974.226 847.817,974.225C837.068,974.045 826.56,977.45 817.96,983.9C811.067,989.111 805.673,996.053 802.328,1004.02C802.054,1004.64 801.913,1005.32 801.913,1006C801.913,1008.7 804.133,1010.93 806.834,1010.93L889.404,1010.94Z" style="fill:rgb(244,244,244);fill-rule:nonzero;"/>
                    <path d="M981.81,937.5L1004,937.5C1018.36,937.5 1030.18,949.318 1030.18,963.68C1030.18,963.68 1030.18,963.681 1030.18,963.681C1030.18,964.369 1030.75,964.935 1031.43,964.935C1031.43,964.935 1031.43,964.935 1031.43,964.935C1032.64,964.924 1033.75,964.254 1034.33,963.189C1036.69,958.939 1039.64,955.044 1043.09,951.621C1047.15,947.568 1051.69,944.026 1056.61,941.074C1061.68,938.032 1067.1,935.595 1072.75,933.812C1078.28,932.009 1084.07,931.075 1089.89,931.045C1095.95,930.925 1102,931.681 1107.85,933.289C1112.05,934.492 1116.07,936.279 1119.78,938.597C1120.24,938.903 1120.45,939.482 1120.29,940.014L1106.85,984.919C1106.69,985.446 1106.2,985.809 1105.65,985.809C1105.47,985.809 1105.29,985.768 1105.12,985.689C1102.1,984.324 1098.96,983.253 1095.74,982.489C1091.04,981.466 1086.23,980.992 1081.42,981.077C1074.59,980.984 1067.83,982.441 1061.65,985.339C1055.77,988.142 1050.6,992.232 1046.52,997.304C1042.22,1002.68 1038.94,1008.8 1036.84,1015.35C1034.49,1022.62 1033.33,1030.22 1033.41,1037.86L1033.41,1133.95C1033.41,1134.63 1032.84,1135.2 1032.15,1135.2L981.81,1135.2C981.122,1135.2 980.555,1134.63 980.555,1133.95L980.555,938.757C980.555,938.756 980.555,938.756 980.555,938.755C980.555,938.067 981.122,937.5 981.81,937.5Z" style="fill:rgb(244,244,244);fill-rule:nonzero;"/>
                    <path d="M1130.95,937.5L1186.52,937.5C1187.37,937.5 1188.14,938.024 1188.45,938.817L1236.64,1062.06C1236.95,1062.86 1237.72,1063.38 1238.57,1063.38C1239.42,1063.38 1240.19,1062.86 1240.5,1062.07L1289.09,938.812C1289.4,938.022 1290.17,937.5 1291.02,937.5L1346.17,937.5C1347.31,937.502 1348.24,938.437 1348.24,939.572C1348.24,939.854 1348.18,940.132 1348.07,940.391L1264.72,1133.95C1264.4,1134.7 1263.65,1135.2 1262.82,1135.2L1213.51,1135.2C1212.68,1135.2 1211.93,1134.7 1211.6,1133.94L1129.05,940.385C1128.94,940.128 1128.88,939.851 1128.88,939.572C1128.88,938.436 1129.82,937.5 1130.95,937.5Z" style="fill:rgb(244,244,244);fill-rule:nonzero;"/>
                    <path d="M1461.08,931.047C1475.51,930.878 1489.84,933.551 1503.24,938.914C1528.34,948.893 1548.22,968.846 1558.11,993.988C1568.6,1021.25 1568.6,1051.45 1558.11,1078.71C1548.22,1103.86 1528.34,1123.81 1503.24,1133.79C1476.12,1144.27 1446.03,1144.27 1418.91,1133.79C1393.81,1123.81 1373.93,1103.86 1364.04,1078.71C1353.55,1051.45 1353.55,1021.25 1364.04,993.988C1373.93,968.846 1393.81,948.893 1418.91,938.914C1432.31,933.55 1446.64,930.877 1461.08,931.047ZM1461.08,1092.84C1467.79,1092.84 1474.43,1091.54 1480.64,1089C1486.92,1086.48 1492.62,1082.7 1497.39,1077.9C1502.38,1072.83 1506.3,1066.79 1508.89,1060.15C1514.53,1044.79 1514.53,1027.9 1508.89,1012.54C1506.3,1005.91 1502.38,999.867 1497.39,994.79C1492.62,989.995 1486.92,986.219 1480.64,983.69C1474.43,981.158 1467.78,979.856 1461.08,979.857C1454.3,979.816 1447.58,981.118 1441.31,983.69C1435.11,986.253 1429.48,990.027 1424.76,994.79C1419.77,999.867 1415.85,1005.91 1413.26,1012.54C1407.62,1027.9 1407.62,1044.79 1413.26,1060.15C1415.85,1066.79 1419.77,1072.83 1424.76,1077.9C1429.48,1082.67 1435.11,1086.44 1441.31,1089C1447.58,1091.58 1454.3,1092.88 1461.08,1092.84Z" style="fill:rgb(244,244,244);fill-rule:nonzero;"/>
                    <path d="M1693.47,931.047C1707.9,930.877 1722.23,933.551 1735.63,938.914C1760.73,948.893 1780.61,968.846 1790.5,993.988C1800.99,1021.25 1800.99,1051.45 1790.5,1078.71C1780.61,1103.86 1760.73,1123.81 1735.63,1133.79C1708.51,1144.27 1678.42,1144.27 1651.3,1133.79C1626.2,1123.81 1606.32,1103.86 1596.43,1078.71C1585.95,1051.45 1585.95,1021.25 1596.43,993.988C1606.32,968.846 1626.2,948.894 1651.3,938.914C1664.7,933.55 1679.03,930.877 1693.47,931.047ZM1693.47,1092.84C1700.17,1092.84 1706.82,1091.54 1713.03,1089C1719.31,1086.48 1725.01,1082.7 1729.78,1077.9C1734.77,1072.83 1738.69,1066.79 1741.28,1060.15C1746.92,1044.79 1746.92,1027.9 1741.28,1012.54C1738.68,1005.91 1734.77,999.867 1729.78,994.79C1725.01,989.995 1719.31,986.219 1713.03,983.69C1706.82,981.158 1700.17,979.856 1693.47,979.857C1686.69,979.819 1679.97,981.126 1673.7,983.7C1667.5,986.263 1661.88,990.037 1657.16,994.8C1652.16,999.877 1648.25,1005.92 1645.66,1012.55C1640.01,1027.91 1640.01,1044.8 1645.66,1060.16C1648.25,1066.8 1652.16,1072.84 1657.16,1077.91C1661.88,1082.67 1667.5,1086.44 1673.7,1089C1679.97,1091.58 1686.69,1092.88 1693.47,1092.84Z" style="fill:rgb(244,244,244);fill-rule:nonzero;"/>
                </g>
                <g transform="matrix(197.211,0,0,12.1888,-62431.8,-17706.8)">
                    <ellipse cx="318.091" cy="1480.03" rx="0.909" ry="14.726" style="fill:rgb(255,172,21);fill-opacity:0;"/>
                    <clipPath id="_clip1">
                        <ellipse cx="318.091" cy="1480.03" rx="0.909" ry="14.726"/>
                    </clipPath>
                    <g clip-path="url(#_clip1)">
                        <g transform="matrix(0.00510798,0,0,0.0826456,317.193,1465.13)">
                            <g>
                                <g transform="matrix(1,0,0,1,-64.569,-86.59)">
                                    <g>
                                        <path d="M220.993,301.065C155.803,290.665 106.445,238.679 90.466,172.472C90.244,171.239 89.16,170.333 87.907,170.333C86.864,170.333 85.918,170.96 85.512,171.921C76.657,188.897 70.248,207.042 66.478,225.814C44.5,334.5 108.438,433.543 206.966,443.452C293.53,452.158 374.39,383.538 389.921,286.2C393.422,264.497 393.389,242.37 389.821,220.678C389.71,219.337 388.575,218.293 387.23,218.293C386.276,218.293 385.397,218.817 384.943,219.656C349.139,277.494 286.117,311.456 220.993,301.065Z" style="fill:rgb(255,172,21);fill-rule:nonzero;"/>
                                    </g>
                                </g>
                                <g transform="matrix(1,0,0,1,-64.346,-80.951)">
                                    <g>
                                        <path d="M253.476,300.105C185.403,323.603 109.496,303.896 61.452,250.25C59.02,286.457 67.587,324.343 89.42,359.279C125.787,417.196 192.72,448.928 260.577,440.421C378.198,425.683 446.152,309.315 409.713,203.721C401.962,181.171 389.775,160.4 373.871,142.634C369.061,214.415 321.484,276.642 253.476,300.105Z" style="fill:rgb(255,159,21);fill-rule:nonzero;"/>
                                    </g>
                                </g>
                                <g transform="matrix(1,0,0,1,-67.062,-70.804)">
                                    <path d="M269.03,282.017C216.511,327.579 142.023,338.638 78.532,310.3C78.158,310.136 77.755,310.051 77.347,310.051C75.73,310.051 74.4,311.381 74.4,312.998C74.4,313.349 74.462,313.698 74.585,314.027C81.088,331.571 90.309,347.983 101.911,362.662C168.705,447.288 289.365,455.521 367.048,380.762C435.268,314.995 440.14,205.907 378.055,134.32C363.555,117.604 342.999,103.182 324.64,93.206C322.355,91.964 320.667,93.549 321.377,96.051C339.75,160.873 323.289,234.958 269.03,282.017Z" style="fill:rgb(244,244,244);fill-rule:nonzero;"/>
                                </g>
                            </g>
                        </g>
                    </g>
                </g>
            </g>
        </g>
    </g>
</svg>
